Coordinates
version=1
nRows=26
nColumns=24
inDegrees=yes

Units are S.I. units (second, meters, Newtons, ...)
Angles are in degrees.

endheader
time	pelvis_tilt	pelvis_list	pelvis_rotation	pelvis_tx	pelvis_ty	pelvis_tz	hip_flexion_r	hip_adduction_r	hip_rotation_r	knee_angle_r	ankle_angle_r	subtalar_angle_r	mtp_angle_r	hip_flexion_l	hip_adduction_l	hip_rotation_l	knee_angle_l	ankle_angle_l	subtalar_angle_l	mtp_angle_l	lumbar_extension	lumbar_bending	lumbar_rotation
      0.67800000	     -2.64180183	     10.25352102	      3.06049515	      0.01126886	      0.95570800	      0.26095330	     31.40745665	    -12.31888706	     -2.62954041	      2.10186975	      6.27949659	     -1.07773170	      0.98541117	    -25.17958106	     11.49337375	     14.07739684	      5.09032011	      7.23403097	    -10.65381743	      0.68236502	     -9.55685082	     -1.80665314	    -14.47787526
      0.68216667	     -2.70275075	     10.15265101	      3.11875683	      0.01752544	      0.95492003	      0.26137275	     31.46114873	    -12.20523974	     -2.10400163	      1.64072052	      5.97847266	     -1.75505753	      1.36089004	    -25.33499210	     11.34090172	     13.84753194	      4.79025480	      7.21183527	    -10.31122829	      0.91137169	     -9.44293943	     -1.65476232	    -14.52262700
      0.68633333	     -2.79534302	     10.04558562	      3.16082922	      0.02382599	      0.95410322	      0.26182609	     31.58232658	    -12.07285744	     -1.60413394	      1.08167994	      5.69689408	     -2.32294648	      1.69726716	    -25.44373894	     11.19395725	     13.60426629	      4.46649309	      7.17741802	     -9.99191760	      1.16395906	     -9.28729426	     -1.51229036	    -14.46637089
      0.69050000	     -2.89684595	      9.92297622	      3.21173300	      0.03017861	      0.95331965	      0.26226289	     31.74062901	    -11.92965401	     -1.20988244	      0.42431192	      5.42161966	     -2.76679067	      4.74751441	    -25.48895841	     11.03991995	     13.19553922	      4.03365108	      7.22698200	     -9.41067911	      3.87578842	     -9.12829407	     -1.33866856	    -14.40945184
      0.69466667	     -2.97937021	      9.76736900	      3.22926087	      0.03656912	      0.95257262	      0.26279516	     31.83554296	    -11.72750413	     -0.67711230	     -0.15519846	      4.93602670	     -3.46591025	      4.78764257	    -25.62296969	     10.84427644	     13.05989558	      3.76257587	      7.01834692	     -9.39108601	      3.93898619	     -8.98737968	     -1.13828213	    -14.39582782
      0.69883333	     -3.08636589	      9.61705947	      3.25246018	      0.04299744	      0.95183193	      0.26333411	     31.98333137	    -11.52823781	     -0.19989850	     -0.81427492	      4.43546454	     -4.12924763	      4.83802756	    -25.68273477	     10.66397877	     12.80818416	      3.38601060	      6.91686382	     -9.16679199	      4.05502554	     -8.79137153	     -0.94159408	    -14.33336863
      0.70300000	     -3.20409920	      9.44481915	      3.26728612	      0.04946823	      0.95110941	      0.26391031	     32.14711488	    -11.29719320	      0.26363665	     -1.50071791	      3.87428941	     -4.79435287	      4.89782416	    -25.71116979	     10.46733701	     12.51309295	      2.97730822	      6.81867438	     -8.88927520	      4.22450406	     -8.59928791	     -0.72583039	    -14.27023475
      0.70716667	     -3.32721113	      9.26289913	      3.27410569	      0.05598137	      0.95040876	      0.26450990	     32.33187193	    -11.04868333	      0.69207755	     -2.22923532	      3.26357860	     -5.43369293	      4.96306535	    -25.72355787	     10.26479312	     12.21260433	      2.55202050	      6.69271235	     -8.62728311	      4.43141281	     -8.38100098	     -0.49515683	    -14.20386413
      0.71133333	     -3.45658358	      9.05874151	      3.27049033	      0.06254270	      0.94973193	      0.26513444	     32.54554824	    -10.77178392	      1.03643770	     -3.01351677	      2.63451609	     -5.94523728	      5.67136286	    -25.66424826	     10.05332696	     11.69414060	      1.99910720	      6.68116040	     -8.05428784	      6.50036557	     -8.16799956	     -0.23569473	    -14.10145722
      0.71550000	     -3.59148688	      8.85637915	      3.26443785	      0.06912010	      0.94907450	      0.26580080	     32.76298752	    -10.48615987	      1.43821424	     -3.79894831	      1.89374898	     -6.65092893	      5.70219054	    -25.67460850	      9.82956835	     11.53181068	      1.61450243	      6.36145541	     -8.08986042	      6.63513856	     -7.93192597	      0.01312845	    -14.05977952
      0.71966667	     -3.74023360	      8.63875523	      3.25039046	      0.07574128	      0.94843124	      0.26649392	     33.01533122	    -10.17941238	      1.77597777	     -4.63310887	      1.13823873	     -7.27209257	      5.74702833	    -25.62477502	      9.60054580	     11.24289524	      1.13764574	      6.12954546	     -7.93223954	      6.82384914	     -7.68234041	      0.28087535	    -13.98120845
      0.72383333	     -3.86797565	      8.41390550	      3.22652905	      0.08237863	      0.94785303	      0.26721296	     33.25128490	     -9.85916979	      2.08912930	     -5.48174132	      0.34711287	     -7.88319768	      5.83135613	    -25.55625455	      9.37014613	     10.87057007	      0.58377988	      5.91176951	     -7.71009043	      7.16024434	     -7.46319629	      0.56015600	    -13.90103450
      0.72800000	     -3.96783415	      8.14705163	      3.16506809	      0.08908334	      0.94732392	      0.26801786	     33.47012733	     -9.47525661	      2.37922981	     -6.35894262	     -0.47591522	     -8.47536580	      6.08073793	    -25.52079220	      9.10042965	     10.42129688	      0.05784352	      5.68770711	     -7.33055371	      8.09791773	     -7.27866532	      0.88892964	    -13.82691643
      0.73216667	     -4.15911541	      7.91844195	      3.13904069	      0.09580069	      0.94669887	      0.26873035	     33.85507786	     -9.15343292	      2.53051182	     -7.39896598	     -1.08987217	     -8.74833830	      6.11024546	    -25.39490875	      8.87172427	     10.19806574	     -0.46410716	      5.27679939	     -7.37375574	      8.23579367	     -6.97198932	      1.18417089	    -13.75406934
      0.73633333	     -4.30495775	      7.68765483	      3.10085663	      0.10250982	      0.94617161	      0.26954567	     34.17183256	     -8.81096371	      2.75344709	     -8.39566119	     -1.85267972	     -9.35105312	      7.35026030	    -25.26318808	      8.63464433	      9.82509849	     -1.07910361	      4.92811784	     -7.18393117	     13.19801067	     -6.71729670	      1.45317382	    -13.68440143
      0.74050000	     -4.46538726	      7.44758031	      3.05247596	      0.10926200	      0.94564445	      0.27034832	     34.54134356	     -8.46072935	      2.88485700	     -9.48303701	     -2.50297333	     -9.72533675	      7.35094449	    -25.13183699	      8.39598878	      9.56843068	     -1.66379726	      4.52845840	     -7.14378399	     13.24709452	     -6.45061338	      1.74891859	    -13.59706632
      0.74466667	     -4.57142308	      7.19375763	      2.97130843	      0.11605897	      0.94520953	      0.27119140	     34.86263778	     -8.08449082	      2.98991810	    -10.59978040	     -3.03257704	     -9.97252065	      7.35144249	    -25.04829489	      8.15044231	      9.26029986	     -2.25352937	      4.03553881	     -7.12197826	     13.29341131	     -6.23352499	      2.08987863	    -13.54121289
      0.74883333	     -4.74141921	      6.95710060	      2.91534098	      0.12283040	      0.94472947	      0.27207976	     35.25557016	     -7.72445316	      3.12788837	    -11.73608035	     -3.61191460	    -10.43319999	      7.36349879	    -24.85045551	      7.91472222	      8.96935590	     -2.94101898	      3.67372929	     -6.98157430	     13.47966789	     -5.95886301	      2.36086427	    -13.45208595
      0.75300000	     -4.81991422	      6.68826207	      2.81339426	      0.12966834	      0.94438162	      0.27298994	     35.56276451	     -7.32165451	      3.19997866	    -12.91339225	     -3.98210294	    -10.63883325	      7.36906090	    -24.76324201	      7.65644086	      8.65058064	     -3.57988710	      3.11374015	     -6.95981038	     13.58007553	     -5.79138452	      2.71310200	    -13.40678102
      0.75716667	     -4.92193694	      6.43011240	      2.71485986	      0.13651167	      0.94403372	      0.27393502	     35.90051100	     -6.92600296	      3.27683699	    -14.11545354	     -4.30522347	    -10.89136640	      7.37438244	    -24.62592409	      7.40773269	      8.35014523	     -4.26677133	      2.56655465	     -6.92572658	     13.71686547	     -5.58875408	      3.03838373	    -13.34699541
      0.76133333	     -5.03132782	      6.16547441	      2.62244361	      0.14334628	      0.94370409	      0.27492152	     36.24248200	     -6.52249594	      3.34149686	    -15.32339992	     -4.59618249	    -11.19201162	      7.59620933	    -24.42714120	      7.14275469	      7.94966294	     -5.04419602	      2.02305654	     -6.76687172	     19.47024995	     -5.38445325	      3.34740369	    -13.25993944
      0.76550000	     -5.07462618	      5.89791637	      2.50345624	      0.15021327	      0.94349660	      0.27591365	     36.51190717	     -6.10816442	      3.39621370	    -16.54321913	     -4.72377821	    -11.38191905	      7.59310902	    -24.32603734	      6.88530680	      7.67814456	     -5.76265999	      1.35995617	     -6.79477696	     19.48495538	     -5.25640601	      3.69495178	    -13.22812457
      0.76966667	     -5.13138526	      5.62875632	      2.37333169	      0.15708474	      0.94330190	      0.27694392	     36.78945092	     -5.68268521	      3.45732321	    -17.76017356	     -4.77342722	    -11.57467460	      7.58722349	    -24.18342412	      6.63124771	      7.39537872	     -6.52986356	      0.69055660	     -6.80871330	     19.52944996	     -5.10984125	      4.03497133	    -13.18511064
      0.77383333	     -5.17515030	      5.35688143	      2.24414070	      0.16395559	      0.94316318	      0.27799650	     37.03991477	     -5.25241070	      3.51948239	    -18.96713061	     -4.74059319	    -11.75594015	      7.57797206	    -24.03210469	      6.37085586	      7.11308679	     -7.33151056	     -0.00079494	     -6.81652663	     19.59996917	     -4.97932396	      4.37679852	    -13.14242616
      0.77800000	     -5.21311846	      5.08154361	      2.10124699	      0.17082484	      0.94306364	      0.27908058	     37.27305553	     -4.80948206	      3.58859414	    -20.16053520	     -4.62167015	    -11.92193768	      7.56288109	    -23.86467858	      6.11032049	      6.81776828	     -8.16807860	     -0.72699349	     -6.81474758	     19.70955196	     -4.85771716	      4.72174597	    -13.10195410
      0.78216667	     -5.22699087	      4.80213227	      1.95624572	      0.17768378	      0.94304205	      0.28017564	     37.45940935	     -4.36079766	      3.64970223	    -21.32299624	     -4.41967818	    -12.08164373	      7.54361201	    -23.69790601	      5.84439431	      6.52898408	     -9.04484755	     -1.48706167	     -6.81645237	     19.83766826	     -4.76091643	      5.07414389	    -13.06743685
